{
  "title": "Battleship (2012) DVDRip XviD-MAX",
  "uid": 7498346,
  "size": 1405923199,
  "categoryP": "video",
  "categoryS": "movies",
  "magnet": "?xt=urn:btih:8ac73565dc5a5ddd698695cd9482cee360b50e59&amp;dn=Battleship+%282012%29+DVDRip+XviD-MAX&amp;tr=udp%3A%2F%2Ftracker.openbittorrent.com%3A80&amp;tr=udp%3A%2F%2Fopen.demonii.com%3A1337&amp;tr=udp%3A%2F%2Ftracker.coppersurfer.tk%3A6969&amp;tr=udp%3A%2F%2Fexodus.desync.com%3A6969",
  "seeders": 45,
  "leechers": 5,
  "uploader": "extremezone",
  "files": -1,
  "time": 1343944435,
  "description": " &lt;a href=&quot;http://leetleech.org/images/69138610372301088829.jpg&quot; rel=&quot;nofollow&quot; target=&quot;_NEW&quot;&gt;http://leetleech.org/images/69138610372301088829.jpg&lt;/a&gt;\n\nScreens:\n &lt;a href=&quot;\nhttp://leetleech.org/images/02050399875675464619.jpg&quot; rel=&quot;nofollow&quot; target=&quot;_NEW&quot;&gt;\nhttp://leetleech.org/images/02050399875675464619.jpg&lt;/a&gt; &lt;a href=&quot;\nhttp://leetleech.org/images/38948249356643463764.jpg&quot; rel=&quot;nofollow&quot; target=&quot;_NEW&quot;&gt;\nhttp://leetleech.org/images/38948249356643463764.jpg&lt;/a&gt; &lt;a href=&quot;\nhttp://leetleech.org/images/84748664250646469083.jpg&quot; rel=&quot;nofollow&quot; target=&quot;_NEW&quot;&gt;\nhttp://leetleech.org/images/84748664250646469083.jpg&lt;/a&gt; &lt;a href=&quot;\nhttp://leetleech.org/images/12420581987603273722.jpg&quot; rel=&quot;nofollow&quot; target=&quot;_NEW&quot;&gt;\nhttp://leetleech.org/images/12420581987603273722.jpg&lt;/a&gt;\n\nAlternative:\n &lt;a href=&quot;\nhttp://www.postimg.com/image/78000/photo-77476.jpg&quot; rel=&quot;nofollow&quot; target=&quot;_NEW&quot;&gt;\nhttp://www.postimg.com/image/78000/photo-77476.jpg&lt;/a&gt; &lt;a href=&quot;\nhttp://www.postimg.com/image/78000/photo-77477.jpg&quot; rel=&quot;nofollow&quot; target=&quot;_NEW&quot;&gt;\nhttp://www.postimg.com/image/78000/photo-77477.jpg&lt;/a&gt; &lt;a href=&quot;\nhttp://www.postimg.com/image/78000/photo-77478.jpg&quot; rel=&quot;nofollow&quot; target=&quot;_NEW&quot;&gt;\nhttp://www.postimg.com/image/78000/photo-77478.jpg&lt;/a&gt; &lt;a href=&quot;\nhttp://www.postimg.com/image/78000/photo-77479.jpg&quot; rel=&quot;nofollow&quot; target=&quot;_NEW&quot;&gt;\nhttp://www.postimg.com/image/78000/photo-77479.jpg&lt;/a&gt;\n\nScreenCaps:\n &lt;a href=&quot;\nhttp://www.postimg.com/image/78000/photo-77486.jpg&quot; rel=&quot;nofollow&quot; target=&quot;_NEW&quot;&gt;\nhttp://www.postimg.com/image/78000/photo-77486.jpg&lt;/a&gt;\n\nBattleship (2012) DVDRip XviD-MAX\nFormat                                   : AVI\nFormat/Info                              : Audio Video Interleave\nFormat profile                           : OpenDML\nFormat settings                          : rec\nFile size                                : 1.31 GiB\nDuration                                 : 2h 6mn\nOverall bit rate                         : 1 482 Kbps\nWriting application                      : VirtualDubMod 1.5.10.2 (build 2542/release)\nWriting library                          : VirtualDubMod build 2542/release\nOriginal source form                     : MAX TORRENTZ\nCopyright                                : SIGISMUNT\n\nVideo\nID                                       : 0\nFormat                                   : MPEG-4 Visual\nFormat profile                           : Advanced Simple@L5\nFormat settings, BVOP                    : 2\nFormat settings, QPel                    : No\nFormat settings, GMC                     : No warppoints\nFormat settings, Matrix                  : Default (MPEG)\nMuxing mode                              : Packed bitstream\nCodec ID                                 : XVID\nCodec ID/Hint                            : XviD\nDuration                                 : 2h 6mn\nBit rate                                 : 1 157 Kbps\nWidth                                    : 640 pixels\nHeight                                   : 256 pixels\nDisplay aspect ratio                     : 2.500\nFrame rate                               : 25.000 fps\nColor space                              : YUV\nChroma subsampling                       : 4:2:0\nBit depth                                : 8 bits\nScan type                                : Progressive\nCompression mode                         : Lossy\nBits/(Pixel*Frame)                       : 0.282\nStream size                              : 1.02 GiB (78%)\nWriting library                          : XviD 1.2.1 (UTC 2008-12-04)\n\nAudio\nID                                       : 1\nFormat                                   : AC-3\nFormat/Info                              : Audio Coding 3\nMode extension                           : CM (complete main)\nFormat settings, Endianness              : Big\nCodec ID                                 : 2000\nDuration                                 : 2h 6mn\nBit rate mode                            : Constant\nBit rate                                 : 320 Kbps\nChannel(s)                               : 6 channels\nChannel positions                        : Front: L C R, Side: L R, LFE\nSampling rate                            : 48.0 KHz\nBit depth                                : 16 bits\nCompression mode                         : Lossy\nStream size                              : 288 MiB (22%)\nAlignment                                : Aligned on interleaves\nInterleave, duration                     : 64 ms (1.60 video frames)\nInterleave, preload duration             : 192 ms\n\nSource: DVD (perfect a/v/sync quality,sample included)\nThis torrent is not seedbox supported,please seed it to the MAX",
  "parsed": {
    "xt": "urn:btih:8ac73565dc5a5ddd698695cd9482cee360b50e59",
    "dn": "Battleship (2012) DVDRip XviD-MAX",
    "tr": [
      "udp://exodus.desync.com:6969",
      "udp://open.demonii.com:1337",
      "udp://tracker.coppersurfer.tk:6969",
      "udp://tracker.openbittorrent.com:80"
    ],
    "infoHash": "8ac73565dc5a5ddd698695cd9482cee360b50e59",
    "infoHashBuffer": {
      "type": "Buffer",
      "data": [
        138,
        199,
        53,
        101,
        220,
        90,
        93,
        221,
        105,
        134,
        149,
        205,
        148,
        130,
        206,
        227,
        96,
        181,
        14,
        89
      ]
    },
    "name": "Battleship (2012) DVDRip XviD-MAX",
    "announce": [
      "udp://exodus.desync.com:6969",
      "udp://open.demonii.com:1337",
      "udp://tracker.coppersurfer.tk:6969",
      "udp://tracker.openbittorrent.com:80"
    ],
    "urlList": []
  },
  "previous": 2,
  "peers": 6,
  "last_updated": "2016-12-27T06:20:46.799Z"
}